<svg width="375" height="257" viewBox="0 0 375 257" fill="none" xmlns="http://www.w3.org/2000/svg">
<g opacity="0.5">
<path d="M-34.5146 152.65C-34.5146 152.65 52.9197 206.132 111.854 181.985C172.071 157.312 123.465 83.3818 183.927 59.2175C237.542 37.7895 269.943 105.975 320.016 78.7145C352.672 60.9364 371.781 10.7298 371.781 10.7298" stroke="#F2AF1A"/>
<path d="M-29.138 169.473C-29.138 169.473 58.2963 222.955 117.231 198.808C177.448 174.135 128.842 100.205 189.303 76.0408C242.918 54.6127 275.32 122.798 325.393 95.5378C358.049 77.7596 377.157 27.553 377.157 27.553" stroke="#48D4A5"/>
<path d="M-23.3541 187.571C-23.3541 187.571 64.0803 241.053 123.015 216.906C183.232 192.233 134.626 118.303 195.087 94.1389C248.702 72.7109 281.104 140.896 331.177 113.636C363.833 95.8577 382.941 45.6512 382.941 45.6512" stroke="#326CF9"/>
</g>
</svg>
